<svg xmlns="http://www.w3.org/2000/svg" viewBox="0 0 500 500">
  <g>
    <path fill="#ebebeb" d="M0 382.4H500V382.65H0z"></path>
    <path fill="#ebebeb" d="M416.78 398.49H449.9V398.74H416.78z"></path>
    <path fill="#ebebeb" d="M322.53 401.21H331.21999999999997V401.46H322.53z"></path>
    <path fill="#ebebeb" d="M396.59 389.21H415.78V389.46H396.59z"></path>
    <path fill="#ebebeb" d="M52.46 390.89H95.65V391.14H52.46z"></path>
    <path fill="#ebebeb" d="M104.56 390.89H110.89V391.14H104.56z"></path>
    <path fill="#ebebeb" d="M131.47 395.11H225.15V395.36H131.47z"></path>
    <path fill="#ebebeb"
      d="M237 337.8H43.91a5.71 5.71 0 01-5.7-5.71V60.66a5.71 5.71 0 015.7-5.66H237a5.71 5.71 0 015.71 5.71v271.38a5.71 5.71 0 01-5.71 5.71zM43.91 55.2a5.46 5.46 0 00-5.45 5.46v271.43a5.46 5.46 0 005.45 5.46H237a5.47 5.47 0 005.46-5.46V60.66A5.47 5.47 0 00237 55.2zM453.31 337.8h-193.1a5.72 5.72 0 01-5.71-5.71V60.66a5.72 5.72 0 015.71-5.66h193.1a5.71 5.71 0 015.69 5.66v271.43a5.71 5.71 0 01-5.69 5.71zM260.21 55.2a5.47 5.47 0 00-5.46 5.46v271.43a5.47 5.47 0 005.46 5.46h193.1a5.47 5.47 0 005.46-5.46V60.66a5.47 5.47 0 00-5.46-5.46z">
    </path>
    <path fill="#e0e0e0"
      d="M370.93 304.31L370.93 321.82 378.33 327.2 343.8 327.2 354.83 323.11 354.83 305.54 370.93 304.31z"></path>
    <path fill="#e0e0e0" d="M277.79 326.7v55.15h154.13V326.7zm2.78 3.57h120.64v18H280.57z"></path>
    <path fill="#ebebeb" d="M277.79 326.7v55.15h127.13V326.7zm2.78 3.57h120.64v18H280.57z"></path>
    <path fill="#e0e0e0" d="M280.57 330.28H305.44V348.29999999999995H280.57z" transform="rotate(180 293 339.285)">
    </path>
    <path fill="#e0e0e0" d="M370.45 339.29H401.21V348.3H370.45z" transform="rotate(180 385.83 343.795)"></path>
    <path fill="#e0e0e0" d="M345.02 342.95H368.18V348.3H345.02z" transform="rotate(180 356.6 345.625)"></path>
    <path fill="#e0e0e0" d="M317.61 337.35H339.67V348.3H317.61z" transform="rotate(180 328.64 342.825)"></path>
    <path fill="#e0e0e0"
      d="M379.35 352.23L380.01 354.38 388.86 354.38 389.52 352.23 401.21 352.23 401.21 376.15 362.41 376.15 362.41 352.23 379.35 352.23z">
    </path>
    <path fill="#e0e0e0"
      d="M333.24 352.23L333.9 354.38 342.75 354.38 343.41 352.23 360.35 352.23 360.35 376.15 321.55 376.15 321.55 352.23 333.24 352.23z">
    </path>
    <path fill="#e0e0e0"
      d="M297.62 352.23L298.28 354.38 307.13 354.38 307.79 352.23 319.48 352.23 319.48 376.15 280.68 376.15 280.68 352.23 297.62 352.23z">
    </path>
    <rect width="123.37" height="74.55" x="295.98" y="240.23" fill="#e0e0e0" rx="4.35"
      transform="rotate(180 357.67 277.505)"></rect>
    <rect width="123.37" height="74.55" x="293.08" y="240.23" fill="#e6e6e6" rx="4.35"
      transform="rotate(180 354.77 277.505)"></rect>
    <path fill="#f0f0f0" d="M321.12 219.44H388.42V335.56H321.12z" transform="rotate(90 354.765 277.505)"></path>
    <path fill="#e6e6e6"
      d="M190.53 261.76H101a17.6 17.6 0 00-17.6 17.59v69.92h124.71v-69.92a17.59 17.59 0 00-17.58-17.59z"></path>
    <path fill="#e0e0e0" d="M234.58 313.58h-16A10.45 10.45 0 00208.11 324v57.82H245V324a10.45 10.45 0 00-10.42-10.42z">
    </path>
    <path fill="#ebebeb" d="M234.58 313.58h-.34A10.45 10.45 0 00223.79 324v57.82H245V324a10.45 10.45 0 00-10.42-10.42z">
    </path>
    <path fill="#e6e6e6" d="M96.45 355.29H219.32999999999998V381.85H96.45z"></path>
    <rect width="139.75" height="27.87" x="90.37" y="331" fill="#f5f5f5" rx="10.62"></rect>
    <rect width="35.95" height="27.87" x="90.57" y="331" rx="10.62" fill="#e0e0e0"></rect>
    <path fill="#e0e0e0" d="M99.6 313.58h-16A10.45 10.45 0 0073.13 324v57.82h36.92V324a10.45 10.45 0 00-10.45-10.42z">
    </path>
    <path fill="#f0f0f0" d="M99.6 313.58h-.33A10.45 10.45 0 0088.82 324v57.82h21.23V324a10.45 10.45 0 00-10.45-10.42z">
    </path>
    <path fill="#ebebeb" d="M76.7 106.96H195.32999999999998V229.54H76.7z"></path>
    <path fill="#f0f0f0" d="M80.85 106.96H199.48V229.54H80.85z"></path>
    <path fill="#e0e0e0" d="M83.84 109.87H196.34V226.7H83.84z"></path>
    <path fill="#f5f5f5" d="M83.84 109.87H193.53V226.7H83.84z"></path>
    <path fill="#ebebeb" d="M137.59 109.87H139.82V226.7H137.59z"></path>
    <path fill="#fff" d="M152.6 109.87L183.86 226.69 186.86 226.69 155.6 109.87 152.6 109.87z"></path>
    <path fill="#f0f0f0" d="M138.86 108.07H140.77V228.94H138.86z"></path>
    <path fill="#fff" d="M163.94 109.87L193.53 220.43 193.53 159.66 180.21 109.87 163.94 109.87z"></path>
    <path fill="#fff" d="M83.84 120.47L83.84 131.68 109.27 226.69 112.27 226.69 83.84 120.47z"></path>
    <path fill="#fff" d="M83.84 143.11L83.84 203.88 89.94 226.69 106.2 226.69 83.84 143.11z"></path>
    <path fill="#e6e6e6" d="M331.91 113.95H403.74V201.35000000000002H331.91z"></path>
    <path fill="#e0e0e0" d="M387.3 179.7L349.56 142.6 390.39 135.86 387.3 179.7z"></path>
    <path fill="#f0f0f0" d="M350.47 170.91L348.6 142.46 377.02 149.44 379.08 171.21 350.47 170.91z"></path>
    <circle cx="387.65" cy="130.88" r="11.47" fill="#fafafa" transform="rotate(-45 387.643 130.883)"></circle>
    <path fill="#e0e0e0" d="M354.18 181.05a5.57 5.57 0 10-5.57 5.56 5.56 5.56 0 005.57-5.56z"></path>
    <path fill="#f5f5f5" d="M349.94 190.83L366 181.05 352.5 169.92 349.94 190.83z"></path>
    <path fill="#e0e0e0" d="M368.91 125.07H372.07000000000005V194.86H368.91z" transform="rotate(180 370.49 159.96)">
    </path>
    <path fill="#ebebeb" d="M338.65 125.07H342.73999999999995V191.76999999999998H338.65z"
      transform="rotate(180 340.695 158.42)"></path>
    <path fill="#ebebeb" d="M375.65 171.21H396.53V192.09H375.65z" transform="rotate(180 386.085 181.645)"></path>
  </g>
  <g>
    <ellipse cx="250" cy="416.24" fill="#f5f5f5" rx="193.89" ry="11.32"></ellipse>
  </g>
  <g>
    <path fill="#407BFF" d="M318.63 133.72s1.66 9.14 13.74 13.27c0 0-6.87-6.64-6.87-13.27z"></path>
    <path fill="#fafafa" d="M318.63 133.72s1.66 9.14 13.74 13.27c0 0-6.87-6.64-6.87-13.27z" opacity="0.6"></path>
    <rect width="32.45" height="32.45" x="306.13" y="104.16" fill="#407BFF" rx="2.72"></rect>
    <rect width="32.45" height="32.45" x="306.13" y="104.16" fill="#fafafa" opacity="0.6" rx="2.72"></rect>
    <path fill="#407BFF"
      d="M315.66 115.49c1.77-2.77 5-1.64 6.73.56 1.73-2.15 5.05-3.18 6.73-.35 2.84 4.78-3.23 9.06-6.09 10.74l-.81.47-.8-.5c-2.81-1.76-8.74-6.23-5.76-10.92z">
    </path>
  </g>
  <g>
    <path fill="#e4897b" d="M330.59 409.57L323.69 407.33 327.98 391.07 334.87 393.31 330.59 409.57z"></path>
    <path fill="#263238"
      d="M323.59 406.42l7.75 2.51a.52.52 0 01.35.64l-1.61 6.25a1.29 1.29 0 01-1.6.84c-2.69-.92-3.92-1.5-7.33-2.61-2.1-.68-11.08-3.35-14-4.29s-1.89-3.78-.58-3.64c5.88.63 13.22 1.24 15.66.34a2.1 2.1 0 011.36-.04z">
    </path>
    <path d="M334.88 393.32L327.98 391.08 325.77 399.46 332.67 401.7 334.88 393.32z" opacity="0.2"></path>
    <path fill="#407BFF"
      d="M351.68 228.69s-9.79 59-12.69 79.61c-3.18 22.54-15.66 88.48-15.66 88.48l12.8 3.53s18.28-63.89 23.46-85.81c5.62-23.78 18-85.81 18-85.81zM319.58 406a.9.9 0 01.08-.93.64.64 0 01.52-.34c.95 0 2.47 1.91 2.64 2.14a.15.15 0 010 .18.17.17 0 01-.16.09 9.93 9.93 0 01-1.92-.35 2 2 0 01-1.16-.79zm.62-.93a.3.3 0 00-.25.17.6.6 0 00-.07.61c.22.42 1.11.76 2.43.91-.64-.76-1.6-1.68-2.11-1.65z">
    </path>
    <path fill="#407BFF"
      d="M322.56 407.12c-.55-.63-1.12-2.4-.71-3.1a.63.63 0 01.74-.3.84.84 0 01.61.44c.47.9-.32 2.83-.36 2.91a.16.16 0 01-.13.11h-.08zm0-3.07c-.24-.05-.33.05-.38.13a3.47 3.47 0 00.5 2.48 3.82 3.82 0 00.26-2.34.53.53 0 00-.3-.25z">
    </path>
    <path fill="#fafafa"
      d="M351.68 228.69s-9.79 59-12.69 79.61c-3.18 22.54-15.66 88.48-15.66 88.48l12.8 3.53s18.28-63.89 23.46-85.81c5.62-23.78 18-85.81 18-85.81z"
      opacity="0.6"></path>
    <path fill="#407BFF" d="M336.45 400.57L322.74 396.79 323 391.21 338.44 396.54 336.45 400.57z"></path>
    <path d="M367.4 252.9c-5 12.5-5.57 33.77-3.54 42.48 3.07-14.31 6.59-31.42 9.3-44.73-.97-3.42-2.72-5.36-5.76 2.25z"
      opacity="0.2"></path>
    <path fill="#dc897c"
      d="M359 178.62c-1 1-1.93 1.94-2.93 2.85s-2 1.79-3 2.66c-2 1.74-4.07 3.4-6.22 5s-4.32 3.12-6.6 4.55c-1.13.73-2.3 1.41-3.47 2.09l-1.79 1-.9.48-.33.18-.45.21a9.29 9.29 0 01-.92.37 10.3 10.3 0 01-3.83.56 11.51 11.51 0 01-3.28-.64 17.3 17.3 0 01-4.68-2.53 35.16 35.16 0 01-6.19-6.19 64.19 64.19 0 01-4.63-6.66 68 68 0 01-3.76-7.07l5.07-3.06a115.69 115.69 0 009.91 10.71 29.19 29.19 0 005.18 4 6.75 6.75 0 002.12.87.9.9 0 00.47 0h-.08c-.08 0 0 0 0 0l.08-.06.75-.5c.49-.33 1-.65 1.48-1 1-.7 2-1.37 2.93-2.1 1.94-1.42 3.84-2.93 5.73-4.47s3.74-3.13 5.57-4.75c.92-.8 1.83-1.62 2.73-2.44l2.6-2.42z">
    </path>
    <path fill="#263238"
      d="M334.92 181.82l9.19 11s.54-.37 1.44-1c.66-.48 1.51-1.12 2.5-1.87 5.58-4.26 14.18-12.4 15.35-17.11 1.73-7-5.33-9.78-15.22-4.51-4.27 2.27-7.33 7-9.88 9.76-.85.91-1.56 1.72-2.12 2.34-.8.84-1.26 1.39-1.26 1.39z">
    </path>
    <path fill="#e4897b" d="M384.88 412.75L377.63 412.75 376.69 395.96 383.94 395.96 384.88 412.75z"></path>
    <path fill="#263238"
      d="M377.25 411.91h8.15a.51.51 0 01.53.49l.4 6.45a1.3 1.3 0 01-1.27 1.29c-2.84-.05-4.19-.22-7.77-.22-2.21 0-11.58.23-14.62.23s-3-3-1.67-3.28c5.79-1.22 12.95-2.91 15-4.52a2 2 0 011.25-.44z">
    </path>
    <path d="M383.94 395.96L376.69 395.96 377.18 404.62 384.43 404.62 383.94 395.96z" opacity="0.2"></path>
    <path fill="#407BFF"
      d="M365.84 228.32s-.69 55.41.49 76.17c1.29 22.73 7.74 98 7.74 98h13.28s-.4-73.48.4-96c.87-24.43 3.12-78.23 3.12-78.23zM373.32 412.79a.92.92 0 01-.21-.92.64.64 0 01.39-.48c.89-.35 2.94 1.06 3.17 1.22a.18.18 0 01.07.17.16.16 0 01-.13.13 9.1 9.1 0 01-1.93.26 2 2 0 01-1.36-.38zm.3-1.08a.26.26 0 00-.18.23.62.62 0 00.12.61c.34.33 1.29.37 2.59.12-.84-.54-2.05-1.15-2.53-.96z">
    </path>
    <path fill="#407BFF"
      d="M376.49 412.89c-.72-.43-1.81-1.94-1.64-2.73a.64.64 0 01.61-.51.83.83 0 01.72.23c.73.71.57 2.79.56 2.88a.17.17 0 01-.09.14h-.08a.11.11 0 01-.08-.01zm-1-2.91c-.24 0-.3.15-.32.25-.11.52.61 1.67 1.24 2.2a3.83 3.83 0 00-.47-2.31.52.52 0 00-.37-.14z">
    </path>
    <path fill="#fafafa"
      d="M365.84 228.32s-.69 55.41.49 76.17c1.29 22.73 7.74 98 7.74 98h13.28s-.4-73.48.4-96c.87-24.43 3.12-78.23 3.12-78.23z"
      opacity="0.6"></path>
    <path fill="#407BFF" d="M387.88 402.53L373.53 402.53 372.74 397.49 388.57 398.27 387.88 402.53z"></path>
    <path d="M363.28 173.6c-2.13-2.26-5 1.62-10.82 4.09-2.61 1.1-10 10.54-10.12 13l1.78 2.11s17.56-12.18 19.16-19.2z"
      opacity="0.3"></path>
    <path fill="#e4897b" d="M311.69 173.7l-2.49-8-6.48 4.75s3.54 7.1 5.94 6.46z"></path>
    <path fill="#e4897b" d="M302.37 162.68L298.73 167.15 302.72 170.47 309.2 165.73 302.37 162.68z"></path>
    <path fill="#263238"
      d="M351.68 228.69h38.78c.27-3.46-.53-14.73.07-29.08a184.58 184.58 0 013.85-31.61c.18-.79.35-1.56.54-2.34 0 0-2-.4-4.78-.81-2.34-.34-5.27-.7-8.15-.83a141.47 141.47 0 00-16.48 0c-2.53.23-5 .65-7 1-2.52.51-4 1-4 1s-9.51 21.9-2.83 62.67z">
    </path>
    <path d="M390.53 199.62a184.57 184.57 0 013.85-31.62c-2.59-.22-7 0-7.75 4.22-.8 4.48.2 15.07 3.9 27.4z"
      opacity="0.3"></path>
    <path fill="#dc897c"
      d="M398.36 171.93l.94 3.4c.34 1.17.7 2.34 1.08 3.5.74 2.32 1.56 4.61 2.43 6.86s1.85 4.4 2.89 6.49l.82 1.53.85 1.47c.28.51.6.95.9 1.41l.46.7c.12.18 0 .07 0 .07s-.08-.08-.14-.11a1.85 1.85 0 00-.93-.34c-.26 0-.25.08-.07.06a6 6 0 002.08-.77 35 35 0 005.54-3.91c3.72-3.09 7.38-6.71 10.9-10.27l4.77 3.51a79.27 79.27 0 01-4.36 6.79 75.65 75.65 0 01-5.09 6.38 38.81 38.81 0 01-6.47 5.92 16.43 16.43 0 01-5 2.43 9.88 9.88 0 01-3.92.31 8.91 8.91 0 01-4.43-1.92 9 9 0 01-.84-.78c-.23-.25-.54-.59-.6-.68l-.7-.86c-.45-.58-1-1.16-1.35-1.75l-1.26-1.79-1.13-1.83a63.23 63.23 0 01-3.89-7.47 82.33 82.33 0 01-3-7.71c-.42-1.3-.83-2.61-1.2-3.93s-.71-2.6-1-4.11z">
    </path>
    <path fill="#263238"
      d="M385.3 178.85a135.11 135.11 0 006.29 14.72c.51 1.08 1 2 1.38 2.81.69 1.36 1.12 2.18 1.12 2.18l14.69-8.14-.52-1.65c-.25-.78-.59-1.81-1-3-2.44-7-7.44-19.42-12.34-20.13-7.32-1.06-12.6 4.42-9.62 13.21z">
    </path>
    <path fill="#e4897b" d="M426.24 182.63l1.33-7.2 6.54 6.38s-2.33 6.16-5.4 4.7z"></path>
    <path fill="#e4897b" d="M433.38 171.84L438.53 177.37 434.11 181.81 427.57 175.43 433.38 171.84z"></path>
    <path fill="#263238"
      d="M439 187.45a.37.37 0 01-.49-.17l-1-2a.36.36 0 01.16-.49.37.37 0 01.49.17l1 2a.36.36 0 01-.16.49z"></path>
    <path fill="#407BFF" d="M439.07 186.18L438.01 186.71 435.39 184.15 438.6 182.55 439.07 186.18z"></path>
    <path fill="#fafafa" d="M439.07 186.18L438.01 186.71 435.39 184.15 438.6 182.55 439.07 186.18z" opacity="0.5">
    </path>
    <rect width="3.86" height="26.31" x="429.46" y="158.95" fill="#407BFF" rx="0.27"
      transform="rotate(-26.51 431.437 172.112)"></rect>
    <path fill="#fafafa"
      d="M427.37 159.72l11.5 23.05a.29.29 0 01-.13.37l-3 1.48a.27.27 0 01-.36-.13l-11.5-23.05a.28.28 0 01.12-.37l3-1.47a.29.29 0 01.37.12z"
      opacity="0.6"></path>
    <path fill="#407BFF"
      d="M436.51 180.77a.71.71 0 01-1-.32l-8-16a.73.73 0 01.32-1 .73.73 0 011 .32l8 16a.72.72 0 01-.32 1z"></path>
    <path fill="#263238" d="M427.37 159.72l.49 1-3.45 1.73-.5-1a.28.28 0 01.12-.37l3-1.47a.29.29 0 01.34.11z"></path>
    <path fill="#e4897b"
      d="M383.86 164.5s-7.81 5.62-16.68 5.33S360 165 360 165s5-.56 5.92-2.79a4.09 4.09 0 00.27-1.49 34.45 34.45 0 00-1.23-8l11.31-5.58c0 .72-2 11.32 1.63 14.92 1.48 1.55 5.96 2.44 5.96 2.44z">
    </path>
    <path d="M376.22 147.13c-.16 4.8-3.73 12.11-10.08 13.52a34.45 34.45 0 00-1.23-8z" opacity="0.2"></path>
    <path fill="#263238" d="M354.2 132.19s-1.2 10.1 4.29 13.81 4.81-15 4.81-15z"></path>
    <path fill="#e4897b"
      d="M374.24 153.41a9.11 9.11 0 01-10.34 3.9 10.17 10.17 0 01-6-4.52c-.18-.3-.35-.62-.51-.95-2.84-6-4.05-16.75 2.3-21a9.88 9.88 0 0115.35 6.92c1.09 7.15 2.04 11.3-.8 15.65z">
    </path>
    <path fill="#263238"
      d="M364.76 142c.15.56-.09 1.1-.47 1.18s-.78-.33-.9-.9.09-1.11.47-1.18.77.28.9.9zM358.24 143.31c.16.56-.09 1.1-.46 1.18s-.78-.33-.9-.91.09-1.1.46-1.18.79.36.9.91z">
    </path>
    <path fill="#de5753" d="M360.37 143.16a21 21 0 01-1.73 5.5 3.43 3.43 0 002.87-.06z"></path>
    <path fill="#263238"
      d="M355.31 141.12a.37.37 0 00.35-.1 2.76 2.76 0 012.3-1 .35.35 0 10.12-.68 3.42 3.42 0 00-2.92 1.16.35.35 0 000 .49.29.29 0 00.15.13zM365.5 139.1a.32.32 0 00.18-.1.35.35 0 00-.13-.47 3.41 3.41 0 00-3.15-.18.34.34 0 00-.15.46.36.36 0 00.47.15 2.77 2.77 0 012.49.18.33.33 0 00.29-.04zM368.07 130l-.41 1.45c2.48.4 2.44 3.21 2.16 4.52-.6 2.81 1.55 6.67 3.84 8 0 0-.12-1.16.89-1s1.68 6.13.25 9.28c0 0 2.44-3 3.07-9.55.57-6 0-10.88-1.55-12.94z">
    </path>
    <path fill="#e4897b"
      d="M379.37 142.92a6.89 6.89 0 01-3.15 4.2c-2.08 1.22-3.73-.5-3.67-2.79.08-2 1.23-5.17 3.57-5.42a3.06 3.06 0 013.25 4.01z">
    </path>
    <path fill="#263238"
      d="M362.25 150.76a22.79 22.79 0 012.19 2.24c.16-.09.32-.18.47-.28 2.13-1.3 2.69-2.61 2.66-3.67a3.26 3.26 0 00-.43-1.46 3.08 3.08 0 00-.51-.71 11.85 11.85 0 01-3.66 3.43c-.43.29-.72.45-.72.45z">
    </path>
    <path fill="#fff"
      d="M363 150.31l.66.64c2-1.23 3.25-2.37 3.51-3.36a3.08 3.08 0 00-.51-.71 11.85 11.85 0 01-3.66 3.43z"></path>
    <path fill="#de5753" d="M364.91 152.72c2.13-1.3 2.69-2.61 2.66-3.67a8 8 0 00-2.08 1.92 3 3 0 00-.58 1.75z"></path>
    <path fill="#263238"
      d="M378 133.86s1.57-6.49-6.72-10-15.81 1.77-16.76 4.76c0 0-4.67 2.85-.43 7l2.43-3.77s8.27 6.78 21.48 2.01z">
    </path>
    <path fill="#fafafa" d="M356.89 183.8H379.02V197.95000000000002H356.89z" opacity="0.6"></path>
    <path fill="#407BFF" d="M356.89 180.27H379.02V183.79000000000002H356.89z"></path>
    <path d="M360.05 183.8L358.3 183.8 356.89 180.28 358.64 180.28 360.05 183.8z" opacity="0.3"></path>
    <path d="M363.21 183.8L361.46 183.8 360.05 180.28 361.8 180.28 363.21 183.8z" opacity="0.3"></path>
    <path d="M366.37 183.8L364.62 183.8 363.21 180.28 364.96 180.28 366.37 183.8z" opacity="0.3"></path>
    <path d="M369.52 183.8L367.78 183.8 366.37 180.28 368.11 180.28 369.52 183.8z" opacity="0.3"></path>
    <path d="M372.68 183.8L370.94 183.8 369.52 180.28 371.27 180.28 372.68 183.8z" opacity="0.3"></path>
    <path d="M375.84 183.8L374.09 183.8 372.68 180.28 374.43 180.28 375.84 183.8z" opacity="0.3"></path>
    <path d="M379 183.8L377.25 183.8 375.84 180.28 377.59 180.28 379 183.8z" opacity="0.3"></path>
    <path fill="#263238"
      d="M361.16 192.66a.46.46 0 01-.41-.22c-.24-.39.11-1.12.75-2.39.33-.65.94-1.87.81-2.1-1.07 0-2.45 2.21-2.9 3a.25.25 0 11-.44-.24c.18-.33 1.79-3.24 3.27-3.29a.52.52 0 01.49.22c.28.43-.12 1.27-.78 2.59a6 6 0 00-.77 1.92c.48 0 1.33-1 1.95-1.66.75-.83 1.18-1.26 1.54-1.23a.42.42 0 01.33.2 4.66 4.66 0 01.32.64.79.79 0 00.43.52c.19.11.58-.12.95-.34a2.64 2.64 0 011.25-.51.74.74 0 01.82.55c.07.18.09.25.32.26.63 0 5.26-.57 7-.81a.25.25 0 01.28.21.24.24 0 01-.22.28c-.25 0-6.28.87-7.09.82a.78.78 0 01-.76-.58c-.07-.19-.1-.24-.33-.23a2.35 2.35 0 00-1 .43c-.5.3-1 .61-1.47.35a1.26 1.26 0 01-.64-.76 3.34 3.34 0 00-.25-.52 5.63 5.63 0 00-1.09 1.05c-.81.92-1.63 1.84-2.36 1.84z">
    </path>
  </g>
  <g>
    <path fill="#263238" d="M74.06 390.14H317.95V420.15H74.06z"></path>
    <path fill="#fafafa" d="M74.06 390.14H317.95V420.15H74.06z" opacity="0.2"></path>
    <path d="M74.06 390.14H140.67000000000002V420.15H74.06z" opacity="0.2"></path>
    <path d="M74.06 390.14H91.2V420.15H74.06z" opacity="0.3"></path>
    <path fill="#263238" d="M74 390.14h16.2v15.61a14.4 14.4 0 01-14.4 14.4H74a1 1 0 01-1-1v-28.04a1 1 0 011-.97z">
    </path>
    <path d="M93.98 404.64H137.23000000000002V405.64H93.98z" opacity="0.2"></path>
    <path d="M143.27 404.64H315.05V405.64H143.27z" opacity="0.2"></path>
    <rect width="120.58" height="15.56" x="172.74" y="397.2" fill="#263238" rx="2.29"></rect>
    <rect width="120.58" height="15.56" x="172.74" y="397.2" fill="#fafafa" opacity="0.6" rx="2.29"></rect>
    <path fill="#263238" d="M181.49 397.2v15.56H175a2.29 2.29 0 01-2.29-2.29v-11a2.3 2.3 0 012.29-2.27z"></path>
    <path d="M74 390.14h16.2v15.61a14.4 14.4 0 01-14.4 14.4H74a1 1 0 01-1-1v-28.04a1 1 0 011-.97z" opacity="0.3"></path>
    <path d="M153.06 412.76H162.03V418.82H153.06z" opacity="0.2"></path>
    <path fill="#407BFF" d="M67.06 360.39H310.95V390.4H67.06z"></path>
    <path d="M67.06 360.39H133.67000000000002V390.4H67.06z" opacity="0.2"></path>
    <path d="M67.06 360.39H84.2V390.4H67.06z" opacity="0.3"></path>
    <path fill="#407BFF" d="M67 360.39h16.2V376a14.4 14.4 0 01-14.4 14.4H67a1 1 0 01-1-1v-28.05a1 1 0 011-.96z"></path>
    <path d="M86.98 374.89H130.23000000000002V375.89H86.98z" opacity="0.2"></path>
    <path d="M136.27 374.89H308.05V375.89H136.27z" opacity="0.2"></path>
    <rect width="120.58" height="15.56" x="165.74" y="367.45" fill="#407BFF" rx="2.29"></rect>
    <path fill="#fafafa"
      d="M286.32 369.74v11A2.28 2.28 0 01284 383H168a2.29 2.29 0 01-2.29-2.29v-11a2.3 2.3 0 012.29-2.29h116a2.29 2.29 0 012.32 2.32z"
      opacity="0.6"></path>
    <path fill="#263238" d="M174.49 367.45V383H168a2.29 2.29 0 01-2.29-2.29v-11a2.3 2.3 0 012.29-2.29z"></path>
    <path d="M67 360.39h16.2V376a14.4 14.4 0 01-14.4 14.4H67a1 1 0 01-1-1v-28.05a1 1 0 011-.96z" opacity="0.3"></path>
    <path d="M146.06 383.01H155.03V389.07H146.06z" opacity="0.2"></path>
    <path fill="#407BFF" d="M74.06 330.63H317.95V360.64H74.06z"></path>
    <path d="M74.06 330.63H317.95V360.64H74.06z" opacity="0.3"></path>
    <path d="M74.06 330.63H140.67000000000002V360.64H74.06z" opacity="0.2"></path>
    <path d="M74.06 330.63H91.2V360.64H74.06z" opacity="0.3"></path>
    <path fill="#407BFF" d="M74 330.63h16.2v15.61a14.4 14.4 0 01-14.4 14.4H74a1 1 0 01-1-1V331.6a1 1 0 011-1z"></path>
    <path d="M93.98 345.14H137.23000000000002V346.14H93.98z" opacity="0.2"></path>
    <path d="M143.27 345.14H315.05V346.14H143.27z" opacity="0.2"></path>
    <rect width="120.58" height="15.56" x="172.74" y="337.7" fill="#407BFF" rx="2.29"></rect>
    <path fill="#fafafa"
      d="M293.32 340v11a2.28 2.28 0 01-2.29 2.29H175a2.29 2.29 0 01-2.29-2.29v-11a2.3 2.3 0 012.29-2.3h116a2.29 2.29 0 012.32 2.3z"
      opacity="0.6"></path>
    <path fill="#407BFF" d="M181.49 337.7v15.56H175a2.29 2.29 0 01-2.29-2.29V340a2.3 2.3 0 012.29-2.3z"></path>
    <path d="M74 330.63h16.2v15.61a14.4 14.4 0 01-14.4 14.4H74a1 1 0 01-1-1V331.6a1 1 0 011-1z" opacity="0.3"></path>
    <path d="M153.06 353.26H162.03V359.32H153.06z" opacity="0.2"></path>
    <path d="M80.02 330.89L140.67 336.21 147.77 341.78 317.95 336.21 317.95 330.63 80.02 330.89z" opacity="0.2"></path>
    <path fill="#263238" d="M80.06 300.88H323.95V330.89H80.06z"></path>
    <path d="M80.06 300.88H146.67000000000002V330.89H80.06z" opacity="0.2"></path>
    <path d="M80.06 300.88H97.2V330.89H80.06z" opacity="0.3"></path>
    <path fill="#263238" d="M80 300.88h16.2v15.62a14.4 14.4 0 01-14.4 14.4H80a1 1 0 01-1-1v-28.05a1 1 0 011-.97z">
    </path>
    <path d="M99.98 315.39H143.23000000000002V316.39H99.98z" opacity="0.2"></path>
    <path d="M149.27 315.39H321.05V316.39H149.27z" opacity="0.2"></path>
    <rect width="120.58" height="15.56" x="178.75" y="307.95" fill="#263238" rx="2.29"></rect>
    <path fill="#fafafa"
      d="M299.32 310.24v11a2.28 2.28 0 01-2.29 2.29H181a2.29 2.29 0 01-2.29-2.29v-11A2.3 2.3 0 01181 308h116a2.29 2.29 0 012.32 2.24z"
      opacity="0.6"></path>
    <path d="M187.49 308v15.56H181a2.29 2.29 0 01-2.29-2.29v-11A2.3 2.3 0 01181 308z" opacity="0.5"></path>
    <path d="M80 300.88h16.2v15.62a14.4 14.4 0 01-14.4 14.4H80a1 1 0 01-1-1v-28.05a1 1 0 011-.97z" opacity="0.3"></path>
    <path d="M159.06 323.51H168.03V329.57H159.06z" opacity="0.2"></path>
    <path fill="#407BFF"
      d="M288.39 195.11V178H115.71v17.14h-1a1.19 1.19 0 00-1.15 1.23v74.13a1.3 1.3 0 001.25 1.34h174.47a1.3 1.3 0 001.26-1.34v-74.16a1.19 1.19 0 00-1.15-1.23z">
    </path>
    <path
      d="M288.39 195.11V178H115.71v17.14h-1a1.19 1.19 0 00-1.15 1.23v74.13a1.3 1.3 0 001.25 1.34h174.47a1.3 1.3 0 001.26-1.34v-74.16a1.19 1.19 0 00-1.15-1.23z"
      opacity="0.2"></path>
    <path fill="#407BFF"
      d="M289.24 167.82H114.86a1.3 1.3 0 00-1.3 1.3v11.29a12.22 12.22 0 0012.22 12.22h163.57a1.18 1.18 0 001.19-1.18v-22.33a1.3 1.3 0 00-1.3-1.3z">
    </path>
    <path
      d="M289.24 167.82H114.86a1.3 1.3 0 00-1.3 1.3v11.29a12.22 12.22 0 0012.22 12.22h163.57a1.18 1.18 0 001.19-1.18v-22.33a1.3 1.3 0 00-1.3-1.3z"
      opacity="0.3"></path>
    <path fill="#407BFF"
      d="M132 167.82h174.35a1.3 1.3 0 011.3 1.3v22.33a1.19 1.19 0 01-1.19 1.19H131.85a1.19 1.19 0 01-1.19-1.19v-22.33a1.3 1.3 0 011.34-1.3z">
    </path>
    <path
      d="M307.64 169.16v22.25a1.18 1.18 0 01-1.14 1.22H131.82a1.19 1.19 0 01-1.15-1.22v-22.25a1.3 1.3 0 011.25-1.34h174.47a1.3 1.3 0 011.25 1.34z"
      opacity="0.2"></path>
    <path d="M307.64 191.28v.13a1.18 1.18 0 01-1.14 1.22H131.82a1.19 1.19 0 01-1.15-1.22v-.13h1.15v-15.05h174.69v15.05z"
      opacity="0.2"></path>
    <path fill="#407BFF"
      d="M305.5 195.11V178H132.82v17.14h-1a1.19 1.19 0 00-1.15 1.23v74.13a1.3 1.3 0 001.25 1.34h174.47a1.31 1.31 0 001.26-1.34v-74.16a1.19 1.19 0 00-1.15-1.23z">
    </path>
    <path
      d="M297 198.26l-.7-.75H142l-.7.75c-.33.34-8 8.71-8 25.59s7.59 26.39 7.92 26.8l.72.89h154.5l.72-.89c.32-.41 7.92-10.05 7.92-26.8s-7.76-25.25-8.08-25.59z"
      opacity="0.2"></path>
    <path fill="#fafafa"
      d="M176.14 200.08V249H143s-7.34-9.14-7.34-25.13a45.49 45.49 0 011.7-12.61c2.17-7.49 5.64-11.16 5.64-11.16z"
      opacity="0.3"></path>
    <path fill="#263238" d="M167.59 200.69h8.55v47.63h-8.55c-12.33 0-22.31-10.67-22.31-23.81s9.98-23.82 22.31-23.82z">
    </path>
    <path fill="#fafafa" d="M167.59 200.69h8.55v47.63h-8.55c-12.33 0-22.31-10.67-22.31-23.81s9.98-23.82 22.31-23.82z"
      opacity="0.2"></path>
    <path fill="#263238" d="M176.14 200.69v47.63c-12.32 0-22.31-10.67-22.31-23.81s9.99-23.82 22.31-23.82z"></path>
    <path fill="#fff"
      d="M163.57 224.53c0 7.41 5.63 13.42 12.57 13.42V211.1c-6.94 0-12.57 6.02-12.57 13.43zM175.41 212c-.06.57-.11 1.15-.16 1.72a9.77 9.77 0 00-5.64 2.5l-1.25-1.1a11.42 11.42 0 017.05-3.12zm-8.08 4.23c.33.45.68.89 1 1.33a11.12 11.12 0 00-2.34 6l-1.61.17a12.83 12.83 0 012.95-7.5zm-2.92 9.08l1.61.16a11.12 11.12 0 002.34 6c-.35.44-.7.88-1 1.34a12.91 12.91 0 01-2.95-7.5zm4 8.62c.42-.35.84-.73 1.25-1.09a9.76 9.76 0 005.65 2.49c0 .58.09 1.15.15 1.72a11.25 11.25 0 01-7.1-3.12z">
    </path>
    <path d="M176.14 218.39v12.22a6.12 6.12 0 010-12.22z" opacity="0.2"></path>
    <path fill="#fafafa"
      d="M166.77 243a.19.19 0 00-.27.08.21.21 0 00.08.29 19.14 19.14 0 009.56 2.59v-.43a18.79 18.79 0 01-9.37-2.53zm-3.36-2.46c-.4-.37-.8-.77-1.19-1.17a.18.18 0 00-.28 0 .22.22 0 000 .3c.38.42.8.82 1.22 1.2a.24.24 0 00.13.05.21.21 0 00.15-.08.22.22 0 00-.03-.29zm-6.91-14.29a.21.21 0 00-.22-.2.2.2 0 00-.17.23 21.89 21.89 0 00.76 4.35.21.21 0 00.19.15h.06a.21.21 0 00.13-.26 22.62 22.62 0 01-.75-4.26zm2.22-12a.19.19 0 00-.27.09 22.55 22.55 0 00-2.45 10.17.2.2 0 00.2.21.21.21 0 00.2-.22 22.16 22.16 0 012.37-10 .23.23 0 00-.05-.27zm3.47-4.87a.18.18 0 00-.28 0c-.39.42-.77.85-1.12 1.3a.22.22 0 000 .31.19.19 0 00.13.05.21.21 0 00.15-.08c.35-.44.71-.87 1.1-1.28a.22.22 0 00.02-.32zM176.1 203a.19.19 0 00-.18.21.23.23 0 00.22.22V203zm-1.66.08a18.84 18.84 0 00-4.07.82.23.23 0 00-.14.27.21.21 0 00.2.15 18.84 18.84 0 014-.81.21.21 0 00.19-.23.2.2 0 00-.18-.16zM167.17 239.28a.19.19 0 00-.29.06.23.23 0 00.06.3 16.08 16.08 0 009.2 2.9v-.42a15.68 15.68 0 01-8.97-2.84zm-3-2.71a14.31 14.31 0 01-1-1.29.19.19 0 00-.28 0 .22.22 0 000 .3c.33.45.68.9 1.05 1.32a.22.22 0 00.14.06.18.18 0 00.14-.06.22.22 0 00-.08-.33zm-4.3-14.81a.21.21 0 00-.17-.24.21.21 0 00-.23.18 18.78 18.78 0 00-.2 2.81c0 .49 0 1 .06 1.5a.2.2 0 00.2.2.24.24 0 00.19-.23c0-.49-.06-1-.06-1.47a17.9 17.9 0 01.18-2.75zm5.13-10.53a.19.19 0 00-.28 0 18.3 18.3 0 00-4.94 8.78.21.21 0 00.14.26h.08a.2.2 0 00.19-.16 17.76 17.76 0 014.83-8.57.23.23 0 00-.02-.31zm4.46-3.29c-.5.23-1 .49-1.46.76a.21.21 0 00-.07.29.18.18 0 00.17.11h.1a12.83 12.83 0 011.42-.75.22.22 0 00.1-.28.19.19 0 00-.27-.13z"
      opacity="0.2"></path>
    <path fill="#263238"
      d="M176.14 248.32h-8.49a23.83 23.83 0 01-22.37-15.61l-7.91-21.47c2.17-7.49 5.64-11.16 5.64-11.16l11.45 33.21a21.76 21.76 0 0017.65 14.48z">
    </path>
    <path fill="#fafafa" d="M302.64 223.85c0 16-7.34 25.13-7.34 25.13h-33.13v-48.9h33.13s7.34 7.77 7.34 23.77z"
      opacity="0.3"></path>
    <path
      d="M302.65 223.85c0 16-7.35 25.13-7.35 25.13h-12s7.35-9.14 7.35-25.13-7.35-23.77-7.35-23.77h12s7.35 7.77 7.35 23.77z"
      opacity="0.1"></path>
    <path fill="#263238" d="M262.17 242.33h.55a17 17 0 0015.07-9.09l17.51-33.16h-7.92l-20.95 40z"></path>
    <path fill="#fafafa" d="M262.17 242.33h.55a17 17 0 0015.07-9.09l17.51-33.16h-7.92l-20.95 40z" opacity="0.2"></path>
    <path fill="#263238" d="M278.87 224.51c0 9.82-7.49 17.82-16.7 17.82v-35.66c9.21 0 16.7 8 16.7 17.84z"></path>
    <path fill="#fff"
      d="M262.17 211.1V238c6.94 0 12.58-6 12.58-13.42s-5.64-13.48-12.58-13.48zm11.73 12.65l-1.61-.17a11.12 11.12 0 00-2.34-6c.35-.44.7-.88 1-1.33a12.83 12.83 0 012.95 7.5zm-3.9-8.63l-1.25 1.1a9.77 9.77 0 00-5.65-2.5c0-.57-.08-1.15-.15-1.72a11.39 11.39 0 017.05 3.12zm-7.05 21.93c.06-.57.11-1.14.15-1.72a9.76 9.76 0 005.65-2.49c.41.36.83.74 1.25 1.09a11.23 11.23 0 01-7.1 3.12zm8.08-4.21c-.33-.46-.68-.9-1-1.34a11.12 11.12 0 002.34-6l1.61-.16a12.91 12.91 0 01-2.98 7.5z">
    </path>
    <path d="M267.9 224.51a5.92 5.92 0 01-5.73 6.1v-12.22a5.93 5.93 0 015.73 6.12z" opacity="0.2"></path>
    <path d="M291.08 181.18H301.9V185.86H291.08z" opacity="0.2"></path>
    <path d="M214.91 181.18H221.35999999999999V185.86H214.91z" opacity="0.2" transform="rotate(180 218.13 183.525)">
    </path>
    <rect width="72.92" height="48.23" x="182.7" y="200.41" fill="#fafafa" opacity="0.6" rx="2.79"></rect>
    <path fill="#263238" d="M255.62 213.53V203.2a2.79 2.79 0 00-2.79-2.79h-67.34a2.79 2.79 0 00-2.79 2.79v10.33z">
    </path>
    <g opacity="0.2">
      <path
        d="M252.36 221.64h-66.49a.25.25 0 010-.5h66.49a.25.25 0 010 .5zM252.36 230.56h-66.49a.25.25 0 010-.5h66.49a.25.25 0 010 .5zM252.36 239.48h-66.49a.25.25 0 010-.5h66.49a.25.25 0 010 .5z">
      </path>
    </g>
    <g fill="#fafafa" opacity="0.6">
      <path
        d="M215.74 204.06l-3 7h-1.27l-3-7h1.4l2.32 5.37 2.33-5.37zM222.65 204.06v7h-1.29v-3h-3.59v3h-1.3v-7h1.3v2.88h3.59v-2.88zM223.93 210.28l.45-1a3.81 3.81 0 002.29.76c1.08 0 1.54-.38 1.54-.9 0-1.5-4.13-.52-4.13-3.1 0-1.12.89-2.07 2.8-2.07a4.35 4.35 0 012.31.61l-.4 1a3.94 3.94 0 00-1.92-.54c-1.07 0-1.51.42-1.51.94 0 1.48 4.12.52 4.12 3.07 0 1.11-.9 2.07-2.81 2.07a4.45 4.45 0 01-2.74-.84z">
      </path>
    </g>
    <path fill="#263238"
      d="M187 238.13a.51.51 0 01-.47-.52l.46-12.88a.48.48 0 01.52-.48.5.5 0 01.48.51l-.14 3.92c.56-2.43 1.32-4.52 2.3-5a1.32 1.32 0 011.77.58 4.43 4.43 0 01.55 1.05c.08-.2.16-.39.24-.55.91-1.87 2-1.86 2.56-1.69 2.56.77 1.6 8.62 1 12.1.37-.31.75-.63 1.11-1-.5-2.21.89-5 2.31-5.55a1.29 1.29 0 011.66.76c.68 1.37-1.09 3.48-2.83 5.12a2 2 0 001 1.29 1.13 1.13 0 001.09-.27c.72-.57 1.38-3.64 1.61-5.63a.5.5 0 011 .08 1.82 1.82 0 011.11-.75 1.26 1.26 0 011.4.86 3.94 3.94 0 01.23-.46c.7-1.23 1.52-1.38 2.09-1.28a1.89 1.89 0 011.3.82c.91 1.32.52 3.78.08 6a.43.43 0 010 .11 19.68 19.68 0 002-2.32 5 5 0 011.4-3.51 1.76 1.76 0 011-.52 2 2 0 012.11-1.18 2.75 2.75 0 012.14 1.56 5.88 5.88 0 002.58-.1l.06-.37c.13-.81.25-1.5.26-1.8a1 1 0 01.64-1 1 1 0 011.1.49c.18.28.67 1.3-.61 2.84a2.45 2.45 0 01-.54.48 16.48 16.48 0 00-.31 4.44 14.17 14.17 0 00.64-2.19c.51-2.07 1.13-4.64 2.54-5.85a1.59 1.59 0 011.93-.38c.9.52 1.16 2 1 3.1a2.94 2.94 0 01-.92 1.73c0 .17.05.35.08.52.09.69.2 1.55.5 1.75a.64.64 0 00.44 0c1.4-.41 2.73-4.64 3.24-7.22a.5.5 0 01.57-.4.51.51 0 01.41.58c-.42 2.55-.51 5.1-.23 5.69a7.8 7.8 0 002.12-1.43 4.2 4.2 0 01.68-3.76c1-1.39 2.58-2.42 3.66-1.75a1 1 0 01.46 1c-.12 1.15-1.81 3.16-3.53 4.72a3.32 3.32 0 00.53.53 2.3 2.3 0 002 .44c1.47-.34 3-1.95 4.22-3.63a2.28 2.28 0 01-1.37-1.64c-.08-.81.52-1.58 1.79-2.27.37-.2 1.49-.81 2.1-.22s.06 1.69-.11 2-.56 1.06-.93 1.66l.71.24a3.86 3.86 0 012 1.21c.38-.17.77-.33 1.17-.49 1.65-.67 3.21-1.3 4.08-2.76a2.73 2.73 0 00.41-1.92.49.49 0 00-.34-.3.5.5 0 01-.35-.61.51.51 0 01.62-.35 1.47 1.47 0 011 .89 3.63 3.63 0 01-.48 2.8c-1.05 1.75-2.84 2.48-4.57 3.18l-1.12.47a3.44 3.44 0 010 .42 3.64 3.64 0 01-2.69 3 1.56 1.56 0 01-1.85-.68 1.06 1.06 0 01-.07-.87c.3-.87 1.71-1.67 3.2-2.35a3.68 3.68 0 00-1.35-.69c-.36-.11-.68-.22-1-.34-1.28 1.85-3.05 3.74-4.91 4.18a3.25 3.25 0 01-2.84-.63 4 4 0 01-.69-.66 8.79 8.79 0 01-2.23 1.45 1 1 0 01-1.05-.12 2.85 2.85 0 01-.5-1.77c-.64 1.57-1.5 3-2.57 3.29a1.46 1.46 0 01-1.26-.13c-.68-.44-.81-1.42-.94-2.45v-.18h-.13a1.87 1.87 0 01-2-.64c-.17.62-.32 1.23-.46 1.79-.44 1.83-.68 2.73-1.25 3a.8.8 0 01-.66 0c-.91-.37-.92-2-.46-5.11a7 7 0 01-2 0 8.63 8.63 0 01.2 1.46 4.52 4.52 0 01-1.15 3.51 3.56 3.56 0 01-2.69 1 3.41 3.41 0 01-3.15-2.07c-1 1.3-2.25 2.61-2.93 2.34-.19-.07-.5-.29-.4-.92 0-.18.08-.42.13-.72.27-1.34.83-4.13.07-5.22a.93.93 0 00-.63-.4.78.78 0 00-.72.31 6 6 0 00-1.06 2.47c.11 1.85-.1 4.22-.62 4.52a.55.55 0 01-.66-.12c-.32-.39-.18-2.59.29-4.55a3.3 3.3 0 00-.41-1.64c-.09-.12-.15-.11-.2-.1-.84.15-1.32 2.31-1.48 4.28L203 236a.47.47 0 01-.51.47.49.49 0 01-.49-.5v-.68a2.92 2.92 0 01-.75 1.06 2.08 2.08 0 01-2 .43 2.72 2.72 0 01-1.48-1.52c-.82.71-1.54 1.27-1.88 1.52a.5.5 0 01-.56 0 .52.52 0 01-.23-.51c1-5.57 1.29-11.83-.11-12.26-.41-.11-.81.17-1.21.86a8.51 8.51 0 00-.77 2.09c.59 2.41.78 5.41.15 6.05a.67.67 0 01-.9.07c-1-.67-.85-3.7-.27-6.13a5.46 5.46 0 00-1-2.25c-.22-.23-.32-.18-.39-.14-1.4.72-2.64 8.11-3.08 13.13a.5.5 0 01-.52.44zm25.42-4.88a2.71 2.71 0 00.18.65 2.39 2.39 0 002.27 1.45 2.5 2.5 0 001.93-.73 3.54 3.54 0 00.86-2.75 7 7 0 00-.27-1.65l-.7-.11a14.78 14.78 0 00-2.24-.24c-.08.14-.16.3-.25.47a22 22 0 01-1.3 2.23c-.13.19-.29.43-.48.68zm-12.27-3.71a.5.5 0 00-.13 0c-.72.26-1.82 2.05-1.74 3.77 1.43-1.42 2.5-2.84 2.17-3.5-.11-.21-.21-.27-.3-.27zm45.09.62c-2.11 1-2.58 1.51-2.66 1.76s.18.38.73.25a2.73 2.73 0 001.93-2.01zm-20.72-1a.32.32 0 00-.24.1.62.62 0 00-.14.68c.13.25.51.34 1.05.26h.12a1.41 1.41 0 00-.51-.93.6.6 0 00-.28-.08zm0-1a1.48 1.48 0 01.77.22 2 2 0 01.86 1.08 2.76 2.76 0 00.21-.67 2.15 2.15 0 00-.47-2.05c-.23-.13-.55.07-.78.27a3.84 3.84 0 00-.88 1.19 1.45 1.45 0 01.28-.02zm12.61-2.7a3.23 3.23 0 00-2.07 1.53 3.56 3.56 0 00-.67 2.47 18.18 18.18 0 002.31-2.56c.75-1 .66-1.39.66-1.39a.52.52 0 00-.24-.03zm-22 3.42c.48 0 1 .11 1.53.2a1.73 1.73 0 00-.86-.36.73.73 0 00-.67.18zm6.84-1.56q0 .19-.06.45a1.2 1.2 0 00.09-.43zm21.41-2.94a2.48 2.48 0 00-.9.35c-.83.45-1.31.94-1.27 1.29 0 .13.13.48.92.91a18.32 18.32 0 001-1.69 2.18 2.18 0 00.25-.84z">
    </path>
    <path d="M121.11 197.51H122.11V269.58H121.11z" opacity="0.2"></path>
    <path fill="#263238" d="M74.06 271.13H317.95V301.14H74.06z"></path>
    <path fill="#fafafa" d="M74.06 271.13H317.95V301.14H74.06z" opacity="0.2"></path>
    <path d="M74.06 271.13H140.67000000000002V301.14H74.06z" opacity="0.2"></path>
    <path d="M74.06 271.13H91.2V301.14H74.06z" opacity="0.2"></path>
    <path fill="#263238" d="M74 271.13h16.2v15.61a14.4 14.4 0 01-14.4 14.4H74a1 1 0 01-1-1V272.1a1 1 0 011-.97z"></path>
    <path d="M93.98 285.64H137.23000000000002V286.64H93.98z" opacity="0.2"></path>
    <path d="M143.27 285.64H315.05V286.64H143.27z" opacity="0.2"></path>
    <rect width="120.58" height="15.56" x="172.74" y="278.2" fill="#263238" rx="2.29"></rect>
    <path fill="#fafafa"
      d="M293.32 280.48v11a2.28 2.28 0 01-2.29 2.29H175a2.29 2.29 0 01-2.29-2.29v-11a2.3 2.3 0 012.29-2.29h116a2.29 2.29 0 012.32 2.29z"
      opacity="0.6"></path>
    <path fill="#407BFF" d="M181.49 278.19v15.56H175a2.29 2.29 0 01-2.29-2.29v-11a2.3 2.3 0 012.29-2.29z"></path>
    <path d="M153.06 293.76H162.03V299.82H153.06z" opacity="0.2"></path>
    <path d="M74.02 360.64L133.67 367.45 143.27 371.98 310.94 360.39 74.02 360.64z" opacity="0.2"></path>
    <path fill="#263238"
      d="M252.17 292.73a.71.71 0 01-.45-.14.72.72 0 01-.31-.76c.13-.69 1.5-1.84 3.24-3a23.05 23.05 0 002.22-4c-.28.38-.61.92-.85 1.31-.81 1.34-1.35 2.17-2 2.29a.87.87 0 01-.69-.18 4.85 4.85 0 01-1.13-3c-2.16 2.25-5.86 5.84-7.2 5.44-.69-.2-.91-1.48-.63-3.83-.75 1.52-1.62 2.71-2.54 2.88a1.61 1.61 0 01-1.65-.82 13.15 13.15 0 00-2.42-2.58 1.44 1.44 0 01-1.47-.32c-.33-.32-.65-.7-.53-1.1a.6.6 0 01.48-.41 2.78 2.78 0 011.65.67c.76-.52 1.31-1.55 1.16-2s-.77-.24-1-.22c-2.08.24-3.57 2.92-4.56 4.69-.71 1.28-1.1 2-1.75 1.83s-.6-.89-.61-1.17a15.26 15.26 0 01.25-2.52c-1.73 1.65-4.23 3.54-5.53 3.08a2.4 2.4 0 01-1.27-1.95 5.35 5.35 0 01-2.29 1.18 2.28 2.28 0 01-2.28-.76 2 2 0 01-.48-1.89 2.42 2.42 0 01.58-1c-1.29.34-2.55.67-3.7 1l-.09.13a5.8 5.8 0 01-5.9 2.09.73.73 0 01-.54-.32 31.87 31.87 0 00-1.23 4.9.5.5 0 01-1-.15l1.57-11.1a.5.5 0 011 .14l-.57 4.06c1.05-2.41 2.55-4.53 4.6-4.63a2.6 2.6 0 012.59 1.28 3.13 3.13 0 01.16 2.42c1.76-.48 3.94-1 6.65-1.7a.49.49 0 01.6.35.5.5 0 01-.34.61c-1.17.35-3.12 1.25-3.41 2.2a1 1 0 00.29 1 1.27 1.27 0 001.32.42 5.1 5.1 0 002.37-1.43c0-.53 0-2.67 1-3a.83.83 0 01.94.27 1.37 1.37 0 01.17 1.44 5.28 5.28 0 01-1.08 1.7 6 6 0 00.1.74c.12.62.35 1 .6 1.13s.79-.06 1.75-.66a18.65 18.65 0 003.84-3.31c.25-.94.58-1.7 1-1.83a.61.61 0 01.7.24c.35.5-.07 1.18-.48 1.72l-.29.36a20.34 20.34 0 00-.54 3.59c.16-.26.34-.59.5-.88 1.08-1.95 2.72-4.9 5.32-5.19 1.44-.15 1.89.48 2 .88.33.92-.38 2.19-1.29 2.93a15.2 15.2 0 012.3 2.53c.34.48.57.43.65.42 1.35-.25 3.25-5.46 4.18-9.11v-.05a.51.51 0 01.61-.36.5.5 0 01.36.61c-1.06 4.17-1.9 9-1.47 9.84.86-.07 4.22-3.1 6.92-6a.51.51 0 01.55-.13.51.51 0 01.32.46c0 1.1.26 2.81.78 3.33a8.5 8.5 0 001.29-1.8c.86-1.41 1.53-2.54 2.4-2.18a.71.71 0 01.43.65 9.08 9.08 0 01-1.42 3.55A27.54 27.54 0 01262 285a.52.52 0 01.61.38.51.51 0 01-.38.6 30.33 30.33 0 00-6.92 3.63 10.83 10.83 0 01-2.59 3 1.22 1.22 0 01-.55.12zm-37.71-6.66c-1 .29-1.81.55-2.45.77a4.7 4.7 0 002.45-.77zm0-4.47h-.14c-1.78.08-3.17 2.42-4.13 5 .57-.37 2-1 5.61-2a2.49 2.49 0 00.18-2.29 1.6 1.6 0 00-1.55-.71zm22.24 3.4z">
    </path>
    <path fill="#263238"
      d="M243.82 282.74a4.29 4.29 0 01-.8-.06.5.5 0 01.23-1s1.69.32 6.6-1.08a.51.51 0 01.62.35.5.5 0 01-.35.61 24.07 24.07 0 01-6.3 1.18zM244.83 322.4a1.28 1.28 0 01-1.2-.49.83.83 0 01.1-1c.54-.77 2.07-1.34 4.53-2.16v-.05c-.44-.68-1.8-1.18-3.74-1.36a1.72 1.72 0 01-1.11-.48 18.43 18.43 0 01-3.43 2c-.59.24-1.43.5-1.94.05a8.09 8.09 0 01-1.49-3.45c-.37 1.85-1.16 3.83-2.81 4.22a1.87 1.87 0 01-2.05-.82 3.8 3.8 0 01-.55-1.22 8.5 8.5 0 01-2 2c-.82.52-1.36.36-1.66.14-.83-.6-1.1-2.29-1.44-5-.18-1.37-.47-3.66-.88-3.88-.53.34-1.14 4.25-1.38 5.72-.31 1.95-.34 2.16-.78 2.23a.57.57 0 01-.56-.3 7.72 7.72 0 01-.29-1.66c-.2-1.6-.68-5.35-1.48-5.94-.78.18-1.63 4.71-1.89 9.65a.5.5 0 01-1 0l-1.06-10.15a.52.52 0 01.45-.55.5.5 0 01.55.45l.53 5.1c.39-2.75 1.06-5.37 2.19-5.55a1.11 1.11 0 01.83.23c.89.67 1.34 2.78 1.69 5.26.44-2.64.91-4.76 1.71-5.33a.91.91 0 01.69-.16c1 .19 1.3 1.84 1.67 4.74.21 1.66.5 3.93 1 4.32.06.05.27 0 .59-.21a8.82 8.82 0 002.2-2.47 5.09 5.09 0 01.49-2.84.94.94 0 011-.5.8.8 0 01.63.66 5.24 5.24 0 01-1.1 2.95 4.82 4.82 0 00.36 1.39c.44 1 1 .86 1.22.81 2-.47 2.38-4.95 2.38-6.64a.51.51 0 01.47-.5.52.52 0 01.53.43c.29 2 1 5.48 1.81 6.16h.05a4.28 4.28 0 001.8-.68 22.65 22.65 0 002.51-1.61 5 5 0 012-3.14c.91-.71 1.49-.62 1.82-.43a.7.7 0 01.34.69c0 .71-1.37 2-2.95 3.24a1.18 1.18 0 00.38.09c1.61.16 3.7.6 4.48 1.83a1.3 1.3 0 01.14.26 20 20 0 004.15-1.74 24.38 24.38 0 002.13-1.57 5.69 5.69 0 011-2.44.73.73 0 011.06 0 1.12 1.12 0 01.32.9c0 .25-.09.86-1.47 2.09a9.51 9.51 0 00-.17 1.24 3.5 3.5 0 00.28 2.25 4.25 4.25 0 001.76-.56 35.06 35.06 0 004.91-2.95 4.61 4.61 0 01.85-1.87c1-1.39 2.83-2.52 3.72-2a.66.66 0 01.3.65c-.09.7-1.84 2.22-3.95 3.73a3 3 0 001.2 2.39 3 3 0 002.63.91c1.72-.38 2.78-2.69 2.79-2.71a.5.5 0 11.91.41c-.05.11-1.28 2.79-3.49 3.28a4 4 0 01-3.49-1.13 4.24 4.24 0 01-1.5-2.49 26.39 26.39 0 01-5.64 3.11c-.54.17-1.31.34-1.74-.14a4.54 4.54 0 01-.53-3.22c-.38.28-.82.59-1.33.93a21.51 21.51 0 01-4.54 1.91 2.82 2.82 0 01-.14.61c-.49 1.37-2.64 2.16-4 2.29zm-.15-1a5.06 5.06 0 001.88-.35 3.06 3.06 0 001.68-1.18 13.75 13.75 0 00-3.56 1.52zm1.25-8a4.37 4.37 0 00-1 .91c-.13.16-.25.31-.35.46a11.28 11.28 0 001.35-1.4zm20.78-.54a5.14 5.14 0 00-1.95 1.68 19.34 19.34 0 001.95-1.71z">
    </path>
    <path fill="#263238"
      d="M255.88 311.59c-.22 0-.8 0-1-.46a.65.65 0 01.23-.75 2.44 2.44 0 012.3-.41.68.68 0 01.44.73c0 .22-.12.66-1.93.88zM231.79 411.06a1.27 1.27 0 01-1.2-.49.84.84 0 01.11-.95c.53-.77 2.07-1.33 4.52-2.16-.43-.69-1.79-1.19-3.73-1.37a1.68 1.68 0 01-1.12-.48 17.81 17.81 0 01-3.43 2c-.58.24-1.43.5-1.94.05a8 8 0 01-1.48-3.45c-.38 1.85-1.16 3.83-2.82 4.22a1.86 1.86 0 01-2-.82 4.07 4.07 0 01-.54-1.21 8.64 8.64 0 01-2 1.94 1.41 1.41 0 01-1.67.14c-.82-.6-1.09-2.29-1.44-5-.17-1.37-.46-3.66-.87-3.88-.53.34-1.15 4.25-1.38 5.72-.31 2-.34 2.16-.79 2.23a.56.56 0 01-.55-.29 7.36 7.36 0 01-.29-1.67c-.21-1.6-.69-5.35-1.48-5.94-.78.18-1.64 4.71-1.9 9.65a.49.49 0 01-.49.47.47.47 0 01-.51-.45l-1-10.15a.5.5 0 01.44-.55.49.49 0 01.55.45l.53 5.1c.39-2.75 1.06-5.37 2.2-5.54a1.06 1.06 0 01.83.22c.89.67 1.34 2.78 1.69 5.26.44-2.64.91-4.76 1.71-5.33a.88.88 0 01.68-.16c1 .2 1.31 1.84 1.67 4.74.21 1.66.5 3.93 1 4.32.07.05.28 0 .59-.21a9 9 0 002.21-2.47 5.1 5.1 0 01.48-2.84 1 1 0 011-.5.81.81 0 01.63.66 5.32 5.32 0 01-1.1 2.95 4.52 4.52 0 00.36 1.39c.44 1 1 .86 1.21.81 2-.47 2.39-4.95 2.39-6.64a.5.5 0 01.46-.5.52.52 0 01.53.43c.3 2 1.05 5.48 1.82 6.16h.05a4.26 4.26 0 001.79-.68 20.6 20.6 0 002.49-1.64 5 5 0 012-3.14c.92-.71 1.5-.62 1.83-.43a.74.74 0 01.34.69c-.06.71-1.38 2-3 3.24a1.24 1.24 0 00.38.09c1.62.16 3.7.6 4.49 1.83a2.15 2.15 0 01.14.26 20.47 20.47 0 004.15-1.74 24 24 0 002.12-1.57 5.68 5.68 0 011-2.44.73.73 0 011.06 0 1.08 1.08 0 01.31.9c0 .25-.08.86-1.47 2.09-.07.39-.13.81-.17 1.25a3.43 3.43 0 00.29 2.24 4.24 4.24 0 001.75-.56 34.12 34.12 0 004.91-3 4.69 4.69 0 01.86-1.87c1-1.38 2.82-2.51 3.71-2a.63.63 0 01.3.65c-.09.7-1.83 2.23-3.94 3.73a2.91 2.91 0 001.2 2.39 3 3 0 002.62.91c1.72-.38 2.78-2.69 2.8-2.71a.49.49 0 01.66-.25.5.5 0 01.25.66c-.05.11-1.28 2.79-3.49 3.28a4 4 0 01-3.49-1.13 4.15 4.15 0 01-1.5-2.48 27.35 27.35 0 01-5.64 3.11c-.54.16-1.31.33-1.74-.15a4.49 4.49 0 01-.53-3.22c-.38.28-.82.59-1.33.93a21.61 21.61 0 01-4.55 1.91 2.33 2.33 0 01-.14.61c-.48 1.37-2.64 2.16-4 2.29zm-.15-1a5.4 5.4 0 001.89-.36 3.1 3.1 0 001.68-1.18 13.31 13.31 0 00-3.57 1.54zm1.26-8a4.07 4.07 0 00-1.05.92 4.43 4.43 0 00-.34.45 12 12 0 001.39-1.43zm20.77-.54a5.22 5.22 0 00-1.95 1.68 18.27 18.27 0 001.95-1.71z">
    </path>
    <path fill="#263238"
      d="M242.84 400.25c-.22 0-.8 0-1-.46a.65.65 0 01.23-.75 2.42 2.42 0 012.29-.41c.47.25.47.59.44.73s-.12.66-1.92.89zM262.35 409.88a.5.5 0 01-.5-.5v-9.09a.5.5 0 011 0v9.09a.5.5 0 01-.5.5zM265.91 409.88a.5.5 0 01-.48-.52c.13-2.95 0-9.91 0-10a.5.5 0 01.49-.51.51.51 0 01.51.49c0 .07.13 7.06 0 10.05a.5.5 0 01-.52.49z">
    </path>
    <path fill="#263238"
      d="M259.84 400.79a.51.51 0 01-.49-.41.5.5 0 01.4-.59c.24 0 5.93-1.08 9.15-.53a.5.5 0 01.41.57.51.51 0 01-.58.41c-3-.51-8.74.53-8.79.54zM269.34 409h-9.49a.5.5 0 010-1h9.49a.5.5 0 010 1zM208.19 380h-.06a.51.51 0 01-.42-.34l-3-9.23a.5.5 0 01.95-.32l2.69 8.2 5-8.3a.5.5 0 01.68-.17.49.49 0 01.17.69l-5.53 9.23a.52.52 0 01-.48.24zM217.42 379a.5.5 0 01-.5-.46 50.75 50.75 0 010-8.4.52.52 0 01.55-.45.51.51 0 01.45.55 48.47 48.47 0 000 8.21.51.51 0 01-.46.55zM222.82 380a.5.5 0 01-.36-.16.51.51 0 01-.1-.53c.87-2.12.77-6.26.68-8.09a5.05 5.05 0 00-.66.27.5.5 0 11-.43-.91c.05 0 .45-.21 1-.41a.52.52 0 01.45-.4.51.51 0 01.4.15 6 6 0 014 .11 3.43 3.43 0 011.78 2.51c1 4.87-6.35 7.33-6.66 7.44zm1.21-9.1a30 30 0 01-.41 7.75c1.84-.79 5.66-2.84 5-5.91a2.39 2.39 0 00-1.25-1.81 5.09 5.09 0 00-3.37-.08zM233.9 380.48a.55.55 0 01-.33-.12.53.53 0 01-.17-.36c-.13-2.62 0-9.5 0-9.79a.51.51 0 01.5-.49.49.49 0 01.49.51c0 .07-.11 6.3 0 9.2l5.28-.48a.5.5 0 01.09 1l-5.8.53z">
    </path>
    <path fill="#263238"
      d="M233.16 371.48a.5.5 0 01-.06-1l6.55-.77a.5.5 0 01.11 1l-6.54.76zM237.73 375.6h-5.15a.5.5 0 010-1h5.15a.5.5 0 110 1zM246 379.05a2.89 2.89 0 01-2.66-1.21c-.91-1.44-.23-3.68.7-5.29.83-1.41 2.16-2.91 3.51-2.83a.49.49 0 01.47.52.48.48 0 01-.52.48c-.72 0-1.78.95-2.59 2.34-1 1.68-1.27 3.38-.73 4.25.37.57 1.13.82 2.27.72a4.28 4.28 0 003.9-2.69 3.59 3.59 0 00-.31-3.52 1.28 1.28 0 00-1.37-.36.49.49 0 01-.62-.34.5.5 0 01.34-.62 2.25 2.25 0 012.39.65 4.53 4.53 0 01.5 4.55 5.34 5.34 0 01-4.75 3.33zM226.3 351.39h-.48a3.38 3.38 0 01-3-2.3c-1.12 1.22-2.45 2.43-3.12 2.1-.18-.09-.46-.33-.32-.95l.19-.7c.38-1.32 1.15-4.05.49-5.2a.92.92 0 00-.6-.45.75.75 0 00-.74.25 5.84 5.84 0 00-1.25 2.37c0 1.86-.44 4.2-1 4.46a.56.56 0 01-.65-.17c-.29-.41 0-2.6.65-4.51a3.24 3.24 0 00-.28-1.67c-.08-.13-.14-.13-.19-.12-.84.09-1.5 2.2-1.82 4.15l-.18 1.43a.49.49 0 01-.54.43.49.49 0 01-.45-.53c0-.15 0-.39.07-.68a2.85 2.85 0 01-.83 1 2.13 2.13 0 01-2.07.26 2.71 2.71 0 01-1.35-1.64c-.88.65-1.64 1.15-2 1.37a.51.51 0 01-.58 0 .52.52 0 01-.17-.55c.53-1.64 1.65-6.5-.13-7.2-.95-.37-1.72.63-2.09 1.26l-.15.28c.4 1.67.36 3.77-.24 4.3a.72.72 0 01-1 0c-.9-.74-.54-2.84.16-4.39a3.06 3.06 0 00-.48-1c-.27-.34-.47-.29-.64-.22-1.52.64-2.72 5.14-3.12 7.83a.5.5 0 01-.54.42.49.49 0 01-.45-.52l.49-7.81a.5.5 0 01.53-.47.51.51 0 01.47.53l-.15 2.4c.58-1.52 1.36-2.87 2.38-3.3a1.53 1.53 0 012 .76 2.54 2.54 0 01.16.28c.86-1.22 1.94-1.67 3-1.25 2.28.9 1.63 5 1.09 7.12.39-.26.77-.55 1.16-.84-.33-2.24 1.29-5 2.73-5.35a1.29 1.29 0 011.6.89c.57 1.42-1.36 3.39-3.23 4.88a2 2 0 00.92 1.37 1.15 1.15 0 001.11-.19c.77-.5 1.66-3.51 2.06-5.48a.5.5 0 011 .16 1.78 1.78 0 011.16-.66 1.24 1.24 0 011.33 1c.09-.16.17-.3.26-.44.81-1.17 1.64-1.25 2.19-1.11a1.89 1.89 0 011.23.92c.8 1.4.22 3.82-.39 6v.11a20.37 20.37 0 002.14-2.15 5 5 0 011.68-3.39 1.84 1.84 0 011.08-.44 2 2 0 012.2-1 2.77 2.77 0 012 1.73 5.8 5.8 0 002.59.11l.09-.37c.19-.79.36-1.47.39-1.77a1 1 0 01.73-.92 1 1 0 011.05.57c.15.29.56 1.35-.84 2.78a2.18 2.18 0 01-.57.44 16 16 0 00-.66 4.41 16.09 16.09 0 00.81-2.14c.67-2 1.5-4.54 3-5.63a1.6 1.6 0 012-.22c.86.59 1 2.07.71 3.17a3 3 0 01-1 1.64v.53c0 .7.08 1.56.36 1.78a.54.54 0 00.44 0c1.43-.29 3.09-4.41 3.8-6.94a.5.5 0 011 .26c-.62 2.51-.92 5-.69 5.65a7.19 7.19 0 002.23-1.25 4.2 4.2 0 011-3.7c1.06-1.3 2.76-2.2 3.79-1.45a1 1 0 01.37 1.06c-.21 1.13-2.06 3-3.89 4.42a2.77 2.77 0 00.49.56 2.26 2.26 0 002 .61c1.5-.23 3.17-1.7 4.5-3.28a2.27 2.27 0 01-1.23-1.74c0-.82.64-1.54 2-2.12.38-.17 1.54-.69 2.11-.05s-.08 1.68-.28 2-.64 1-1.06 1.58l.69.29a4 4 0 011.92 1.37 9 9 0 002.88-1.69.5.5 0 01.71 0 .49.49 0 010 .7 9.74 9.74 0 01-3.24 1.92 1.9 1.9 0 010 .42 3.63 3.63 0 01-2.92 2.78 1.55 1.55 0 01-1.78-.83 1 1 0 010-.86c.36-.86 1.84-1.53 3.38-2.1a3.62 3.62 0 00-1.29-.79q-.53-.21-1-.42c-1.42 1.74-3.33 3.48-5.23 3.77a3.26 3.26 0 01-2.78-.85 4.17 4.17 0 01-.63-.72 8.8 8.8 0 01-2.34 1.27 1 1 0 01-1-.2 2.91 2.91 0 01-.35-1.8c-.77 1.5-1.74 2.85-2.83 3.07a1.5 1.5 0 01-1.25-.23c-.63-.5-.69-1.48-.74-2.52v-.18h-.13a1.86 1.86 0 01-1.95-.8c-.23.6-.42 1.2-.6 1.74-.59 1.8-.91 2.67-1.5 2.92a.77.77 0 01-.66 0c-.87-.44-.76-2-.05-5.13a6.8 6.8 0 01-2-.11 8.37 8.37 0 01.08 1.47 4.48 4.48 0 01-1.42 3.4 3.44 3.44 0 01-2.51.74zm-2.62-3.3a2.37 2.37 0 002.27 2.28 2.47 2.47 0 002-.57 3.53 3.53 0 001.08-2.67 6.66 6.66 0 00-.14-1.67l-.69-.16a14.87 14.87 0 00-2.21-.42c-.09.14-.18.29-.29.45a21.53 21.53 0 01-1.47 2.12zm32.95-.46c-2.18.8-2.68 1.3-2.79 1.54s.16.4.72.31a2.7 2.7 0 002.07-1.85zm-44.91-4.22h-.1c-.75.2-2 1.89-2.05 3.61 1.54-1.3 2.73-2.63 2.45-3.31-.1-.24-.21-.3-.3-.3zM236 345a.32.32 0 00-.22.09.62.62 0 00-.19.66c.11.26.48.39 1 .34h.12a1.42 1.42 0 00-.43-1 .61.61 0 00-.28-.09zm12.83-2.69a3.35 3.35 0 00-2.12 1.37 3.52 3.52 0 00-.87 2.4 17.7 17.7 0 002.5-2.36c.84-1 .78-1.33.77-1.33a.47.47 0 00-.25-.08zM236 344a1.54 1.54 0 01.86.28 1.94 1.94 0 01.76 1.15 2.31 2.31 0 00.27-.65 2.19 2.19 0 00-.3-2.08c-.23-.16-.56 0-.81.2a4.12 4.12 0 00-1 1.11zm-9.3 0c.47.08 1 .2 1.51.33a1.83 1.83 0 00-.83-.43.74.74 0 00-.65.1zm28.52-2.21a2.38 2.38 0 00-.93.27c-.86.39-1.38.83-1.37 1.19 0 .12.09.48.85 1a16.34 16.34 0 001.09-1.6 2.79 2.79 0 00.39-.9zM233.66 343c0 .13 0 .28-.09.44a.94.94 0 00.09-.44zM265.09 350.66a.5.5 0 01-.44-.21c-.25-.41.1-.66.41-.87 6.78-4.61 7-6.9 6.84-7.68s-1-1.25-2.31-1.1c-2 .26-3.95 1.65-3.95 2.08a.5.5 0 01-.31.63.51.51 0 01-.64-.31 1.3 1.3 0 01.42-1.33c1-1.13 3.9-2.49 5.94-2a2.35 2.35 0 011.82 1.78c.51 2-1.45 4.56-5.82 7.76h.92c1.82-.07 4.56-.17 5.28-.78a.49.49 0 01.7.05.51.51 0 01-.05.71c-.91.77-3.11.91-5.89 1a14.13 14.13 0 00-2.63.22.59.59 0 01-.29.05z">
    </path>
  </g>
</svg>
